<svg width="150" height="43" fill="none" xmlns="http://www.w3.org/2000/svg"><path d="M15.603 30.133c-1.99 1.149-3.419.191-3.419-1.512v-14.51c0-1.703 1.429-2.66 3.42-1.512l12.393 7.16c1.236.714 1.236 2.499 0 3.213 0 0-9.295 5.371-12.394 7.16z" fill="#00C1FF"/><path d="M25.835 30.132c-1.99 1.15-3.419.192-3.419-1.512V14.111c0-1.703 1.428-2.661 3.419-1.512l12.122 7.003c1.358.784 1.358 2.744 0 3.527l-12.122 7.003z" fill="#6FE4FF"/><mask id="a" maskUnits="userSpaceOnUse" x="22" y="12" width="17" height="19"><path d="M25.835 30.132c-1.99 1.15-3.419.192-3.419-1.512V14.111c0-1.703 1.428-2.661 3.419-1.512l12.122 7.003c1.358.784 1.358 2.744 0 3.527l-12.122 7.003z" fill="#6FE4FF"/></mask><g filter="url(#filter0_f)" mask="url(#a)"><path d="M15.603 30.133c-1.99 1.149-3.419.191-3.419-1.512v-14.51c0-1.703 1.429-2.66 3.42-1.512l12.393 7.16c1.236.714 1.236 2.499 0 3.213 0 0-9.295 5.371-12.394 7.16z" fill="#009EE4"/></g><path d="M45.575 24.596l.352-.799c.235-.54.658-.68 1.198-.282 1.034.752 2.724 1.316 4.98 1.316 1.927 0 2.749-.493 2.749-1.08 0-.659-.681-.847-1.81-.988l-2.56-.328c-3.077-.399-4.628-1.504-4.628-3.43 0-2.067 1.692-3.712 5.614-3.712 2.185 0 3.595.33 4.51.681 1.01.4 1.151.728 1.151 1.551v1.057c0 .658-.235.893-.892.893h-.728c-.658 0-.893-.235-.893-.893v-.353c-.423-.14-1.48-.352-2.725-.352-2.16 0-3.218.4-3.218 1.057 0 .493.634.775 1.784.94l2.514.33c3.078.398 4.698 1.315 4.698 3.523 0 2.255-2.137 3.69-5.943 3.69-2.795 0-5.05-.894-5.943-1.716-.328-.306-.375-.706-.21-1.105zM73.3 27.227h-1.293c-.634 0-.846-.094-1.15-.564l-2.443-3.595c-.352-.493-.611-.61-1.339-.61h-2.443v3.876c0 .658-.235.893-.893.893h-.94c-.657 0-.892-.235-.892-.893V14.658h-.87c-.657 0-.892-.235-.892-.893v-.775c0-.658.235-.893.893-.893h2.702c.657 0 .892.235.892.893v6.837h2.185c.728 0 .987-.117 1.339-.61l2.043-3.149c.33-.493.54-.587 1.175-.587h1.292c.705 0 .846.564.446 1.151l-2.278 3.454a7.899 7.899 0 01-.8.963c.283.235.681.634.846.87l2.866 4.181c.4.564.258 1.127-.447 1.127zm4.447 2.163v-.776c0-.658.234-.893.892-.893h1.128c.681 0 1.01-.14 1.269-.68l.141-.306-5.38-10.173c-.328-.61-.07-1.08.635-1.08h1.221c.634 0 .916.116 1.151.563l2.255 4.628a106.696 106.696 0 011.574 3.336c.47-1.034 1.01-2.208 1.527-3.242l2.301-4.722c.211-.446.517-.564 1.151-.564h1.222c.705 0 .963.47.634 1.081l-6.131 11.63c-.705 1.339-1.527 2.091-3.36 2.091h-1.339c-.657 0-.891-.236-.891-.894zm26.733-8.083v.282c0 .658-.234.893-.892.893h-9.632c.329 1.245 1.574 2.443 4.228 2.443 2.373 0 3.454-.775 3.947-1.128.54-.399.916-.259 1.198.282l.399.775c.211.4.094.705-.259 1.01-.517.446-2.279 1.551-5.285 1.551-4.04 0-6.86-2.373-6.86-6.085 0-3.642 2.702-6.038 6.578-6.038 3.877 0 6.578 2.373 6.578 6.015zm-10.524-1.104h7.917c-.305-1.222-1.551-2.373-3.97-2.373-2.42 0-3.642 1.151-3.947 2.373zm27.654.704v5.427c0 .658-.235.893-.893.893h-.939c-.658 0-.893-.235-.893-.893v-5.357c0-1.903-1.128-2.937-3.031-2.937-1.48 0-3.241.916-4.111 1.88v6.413c0 .658-.235.893-.893.893h-.94c-.658 0-.893-.235-.893-.893V18.04h-.869c-.657 0-.892-.235-.892-.893v-.775c0-.658.235-.893.892-.893h2.279c.658 0 .893.235.893.893v.658c1.269-1.034 2.984-1.739 4.839-1.739 3.525.001 5.451 2.092 5.451 5.616zm16.22-4.534V27.37c0 2.443-2.631 4.041-5.991 4.041-3.171 0-4.674-.94-5.356-1.574-.329-.305-.376-.705-.212-1.104l.352-.799c.259-.587.681-.705 1.198-.282.822.658 1.621 1.198 3.994 1.222 2.113 0 3.288-.775 3.288-1.715V26.03c-.846.54-1.88.893-3.359.893-3.806 0-6.437-2.232-6.437-5.803 0-3.571 2.63-5.827 6.437-5.827 1.644 0 2.724.47 3.453 1.034.188-.399.564-.846 1.034-.846h.705c.659 0 .894.234.894.892zM135.105 23v-3.76c-.658-.799-1.621-1.292-3.36-1.292-2.09 0-3.617 1.198-3.617 3.172 0 1.974 1.527 3.148 3.617 3.148 1.715 0 2.679-.494 3.36-1.269z" fill="#000"/><defs><filter id="filter0_f" x="10.766" y="10.679" width="19.577" height="21.375" filterUnits="userSpaceOnUse" color-interpolation-filters="sRGB"><feFlood flood-opacity="0" result="BackgroundImageFix"/><feBlend in="SourceGraphic" in2="BackgroundImageFix" result="shape"/><feGaussianBlur stdDeviation=".709" result="effect1_foregroundBlur"/></filter></defs></svg>